<svg id="Layer_1" data-name="Layer 1" xmlns="http://www.w3.org/2000/svg" viewBox="0 0 376 123.5"><defs><style>.cls-1{fill:#444f63;}.cls-2{fill:none;}</style></defs><title>dtnow-skyline-mob</title><polygon class="cls-1" points="0 123.5 376 123.48 376 110.22 372.58 110.22 372.58 85.75 368.79 85.75 368.79 83.32 363.38 83.32 363.38 86.31 360.8 86.31 360.8 109.28 358.1 109.28 358.1 85.56 355.39 85.56 355.39 83.13 350.11 83.13 350.11 86.12 346.86 86.12 346.86 106.11 342.53 106.11 342.53 107.97 338.06 107.97 338.06 91.35 332.37 91.35 332.37 94.52 328.04 94.52 328.04 98.45 326.42 98.45 326.42 107.6 320.86 107.6 320.86 102.56 316.8 102.56 316.8 74.53 286.61 74.53 286.61 108.35 282.95 108.35 282.95 96.39 281.33 96.39 281.33 89.67 276.46 89.67 276.46 85.93 273.48 85.93 273.48 78.46 263.19 78.46 263.19 84.62 261.7 84.62 261.7 91.72 259.94 91.72 259.94 94.15 254.39 94.15 254.39 85.37 252.49 85.37 252.49 78.08 246.53 78.08 246.53 41.47 234.62 41.47 234.62 33.07 231.64 33.07 231.64 41.47 224.6 41.47 224.6 78.46 221.22 78.46 221.22 97.14 216.48 97.14 216.48 101.25 211.5 101.25 211.5 61.83 209.03 61.83 209.03 39.04 205.51 39.04 205.51 36.8 202.53 36.8 202.53 29.89 195.9 29.89 195.9 34.37 191.43 34.37 191.43 31.38 181.28 31.38 181.28 36.05 179.38 36.05 179.38 39.42 176.81 39.42 176.81 60.9 171.93 60.9 171.93 97.89 169.09 97.89 169.09 41.28 165.44 41.28 165.44 36.8 150.54 36.8 150.54 41.66 146.48 41.66 146.48 73.23 136.06 73.23 136.06 80.7 134.16 80.7 134.16 38.86 131.59 38.86 131.59 34.37 118.18 34.37 118.18 38.86 115.88 38.86 115.88 43.34 112.36 43.34 112.36 41.47 95.3 41.47 95.3 27.09 92.05 27.09 92.05 18.31 88.67 18.31 88.67 15.32 85.01 15.32 85.01 11.21 80.28 11.21 80.28 15.69 77.03 15.69 77.03 19.24 74.72 19.24 74.72 27.65 71.07 27.65 71.07 36.43 66.33 36.43 66.33 42.41 64.57 42.41 64.57 48.57 60.91 48.57 60.91 0 39.12 0 39.12 23.35 29.1 23.35 29.1 39.23 27.61 39.23 27.61 48.01 24.09 48.01 24.09 43.9 22.46 43.9 22.46 36.62 8.65 36.62 8.65 46.89 7.03 46.89 7.03 52.31 2.42 52.31 2.42 48.57 0 48.57 0 123.5"/><polyline class="cls-2" points="376 123.5 376 0 0 0"/></svg>